<svg xmlns="http://www.w3.org/2000/svg" viewBox="0 0 524 137" style="enable-background:new 0 0 524 137;version:1"><style type="text/css">
	.st0{fill:#2D2D2D;}
	.st1{fill:#ff286e;}
</style><circle class="st1" cx="51.1" cy="13" r="7"/><circle class="st1" cx="70.9" cy="13" r="7"/><circle class="st1" cx="51.1" cy="32.9" r="7"/><circle class="st1" cx="70.9" cy="32.9" r="7"/><circle class="st1" cx="51.1" cy="52.5" r="7"/><circle class="st1" cx="70.9" cy="52.5" r="7"/><circle class="st1" cx="51.1" cy="72.4" r="7"/><circle class="st1" cx="70.9" cy="72.4" r="7"/><circle class="st1" cx="90.4" cy="52.5" r="7"/><circle class="st1" cx="110.3" cy="52.5" r="7"/><circle class="st1" cx="90.4" cy="72.4" r="7"/><circle class="st1" cx="110.3" cy="72.4" r="7"/><circle class="st1" cx="12" cy="52.5" r="7"/><circle class="st1" cx="31.9" cy="52.5" r="7"/><circle class="st1" cx="12" cy="72.4" r="7"/><circle class="st1" cx="31.9" cy="72.4" r="7"/><circle class="st1" cx="51.1" cy="92" r="7"/><circle class="st1" cx="70.9" cy="92" r="7"/><circle class="st1" cx="51.1" cy="111.9" r="7"/><circle class="st1" cx="70.9" cy="111.9" r="7"/></svg>