<svg xmlns="http://www.w3.org/2000/svg" viewBox="0 0 524 137" style="enable-background:new 0 0 524 137;version:1"><style type="text/css">
	.st0{fill:#2D2D2D;}
	.st1{fill:#ff286e;}
</style><path class="st0" d="M125.1 111.1V132h-10.9v-21.2c0-3.1-0.5-5.3-1.4-6.8 -0.9-1.4-2.4-2.2-4.5-2.2 -2.1 0-3.9 0.8-5.5 2.3 -1.6 1.6-2.4 3.9-2.4 6.9V132H89.5V93.3h10.8v4.4c3-3.4 6.4-5 10.2-5 2.4 0 4.7 0.7 6.7 2.2 2 1.4 3.5 3.2 4.5 5.3 1.5-2.4 3.5-4.2 6-5.5 2.5-1.3 5.1-1.9 7.6-1.9 4.6 0 8.2 1.4 11 4.1 2.8 2.7 4.2 6.6 4.2 11.8V132h-10.9v-21.2c0-6-2.2-8.9-6.6-8.9 -2.2 0-4 0.8-5.6 2.3C125.9 105.8 125.1 108.1 125.1 111.1z"/><path class="st0" d="M193.9 126.4c-4.4 4.1-9.5 6.2-15.4 6.2 -5.9 0-10.7-1.8-14.6-5.4 -3.8-3.6-5.8-8.5-5.8-14.6 0-6.1 2-10.9 5.9-14.5 3.9-3.6 8.5-5.4 13.9-5.4 5.3 0 9.9 1.6 13.6 4.8 3.7 3.2 5.6 7.6 5.6 13.2v5.8h-28.2c0.3 2.1 1.4 3.8 3.3 5.2 1.9 1.3 4 2 6.3 2 3.8 0 6.9-1.3 9.4-3.8L193.9 126.4zM183.5 103.4c-1.5-1.2-3.3-1.9-5.4-1.9 -2.1 0-4.1 0.6-5.9 1.9 -1.8 1.3-2.8 3-3.1 5.3h17C185.8 106.5 185 104.7 183.5 103.4z"/><path class="st0" d="M220.3 132.6c-4.6 0-8.7-1.9-12.3-5.8s-5.4-8.7-5.4-14.5c0-5.8 1.8-10.5 5.3-14.1 3.5-3.7 7.6-5.5 12.3-5.5 4.7 0 8.5 1.7 11.5 5v-19h10.8V132h-10.8v-5.1C228.7 130.7 224.9 132.6 220.3 132.6zM213.5 112.7c0 3.1 0.9 5.7 2.8 7.7 1.9 2 4.1 3 6.6 3 2.5 0 4.6-1 6.4-3 1.8-2 2.6-4.6 2.6-7.7 0-3.1-0.9-5.8-2.6-7.8 -1.8-2.1-3.9-3.1-6.4-3.1 -2.5 0-4.7 1.1-6.6 3.2C214.4 107 213.5 109.6 213.5 112.7z"/><path class="st0" d="M253.7 88.4c-1.2-1.2-1.8-2.7-1.8-4.5 0-1.8 0.6-3.3 1.8-4.5 1.2-1.2 2.7-1.8 4.5-1.8 1.8 0 3.3 0.6 4.5 1.8 1.2 1.2 1.8 2.7 1.8 4.5 0 1.8-0.6 3.3-1.8 4.5 -1.2 1.2-2.7 1.8-4.5 1.8C256.4 90.2 254.9 89.6 253.7 88.4zM263.6 132h-10.8V93.3h10.8V132z"/><path class="st1" d="M290.8 123c3.6 0 6.8-1.8 9.7-5.4l6.4 7.2c-5 5.2-10.4 7.8-16.2 7.8 -5.8 0-10.7-1.8-14.7-5.5 -4-3.7-6-8.5-6-14.4 0-5.9 2-10.8 6.1-14.5 4.1-3.7 8.9-5.6 14.4-5.6 2.8 0 5.6 0.6 8.5 1.7 2.9 1.2 5.4 2.9 7.5 5.1l-5.6 7.3c-1.2-1.5-2.8-2.6-4.6-3.5 -1.8-0.8-3.6-1.2-5.4-1.2 -2.8 0-5.3 0.9-7.3 2.8 -2 1.8-3.1 4.4-3.1 7.7 0 3.3 1 5.8 3.1 7.7C285.7 122.1 288.1 123 290.8 123z"/><path class="st1" d="M324.9 111.1V132h-10.8V78.6h10.8v19c3.3-3.3 6.9-5 11-5 4.1 0 7.5 1.4 10.3 4.3 2.8 2.9 4.2 6.7 4.2 11.5V132h-10.8v-21.2c0-6-2.2-8.9-6.6-8.9 -2.2 0-4 0.8-5.7 2.3C325.7 105.8 324.9 108.1 324.9 111.1z"/><path class="st1" d="M393.7 126.4c-4.4 4.1-9.5 6.2-15.4 6.2s-10.7-1.8-14.6-5.4c-3.8-3.6-5.8-8.5-5.8-14.6 0-6.1 2-10.9 5.9-14.5 3.9-3.6 8.5-5.4 13.9-5.4 5.3 0 9.9 1.6 13.6 4.8s5.6 7.6 5.6 13.2v5.8h-28.2c0.3 2.1 1.4 3.8 3.3 5.2 1.9 1.3 4 2 6.3 2 3.8 0 6.9-1.3 9.4-3.8L393.7 126.4zM383.3 103.4c-1.5-1.2-3.3-1.9-5.4-1.9 -2.1 0-4.1 0.6-5.9 1.9 -1.8 1.3-2.8 3-3.1 5.3h17C385.7 106.5 384.8 104.7 383.3 103.4z"/><path class="st1" d="M423.2 123c3.6 0 6.8-1.8 9.7-5.4l6.4 7.2c-5 5.2-10.4 7.8-16.2 7.8 -5.8 0-10.7-1.8-14.7-5.5s-6-8.5-6-14.4c0-5.9 2-10.8 6.1-14.5 4.1-3.7 8.9-5.6 14.4-5.6 2.8 0 5.6 0.6 8.5 1.7 2.9 1.2 5.4 2.9 7.5 5.1l-5.6 7.3c-1.2-1.5-2.8-2.6-4.6-3.5 -1.8-0.8-3.6-1.2-5.4-1.2 -2.8 0-5.3 0.9-7.3 2.8 -2 1.8-3.1 4.4-3.1 7.7 0 3.3 1 5.8 3.1 7.7C418.1 122.1 420.5 123 423.2 123z"/><path class="st1" d="M457.3 132h-10.8V78.6h10.8V106l12-12.8H483l-14.8 15.7 15.3 23.1h-12.8l-9.9-14.8 -3.5 3.7V132z"/><path class="st1" d="M517.7 120c0 3.8-1.4 6.9-4.2 9.2 -2.8 2.3-6.4 3.5-10.7 3.5 -2.9 0-5.9-0.5-9-1.5 -3.1-1-5.9-2.6-8.4-4.6l4.8-6.8c4 3.1 8.3 4.7 12.9 4.7 1.4 0 2.5-0.3 3.3-0.8 0.8-0.6 1.2-1.3 1.2-2.2 0-0.9-0.6-1.8-1.7-2.5 -1.1-0.8-2.8-1.5-4.9-2.2 -2.1-0.7-3.8-1.2-4.9-1.7 -1.1-0.5-2.4-1.2-3.9-2.1 -2.9-1.8-4.4-4.5-4.4-8.1 0-3.6 1.4-6.5 4.3-8.7 2.9-2.3 6.6-3.4 11.2-3.4 4.6 0 9.1 1.5 13.7 4.6l-4 7.2c-3.4-2.3-6.7-3.5-10-3.5s-5 0.9-5 2.7c0 1 0.5 1.8 1.6 2.4s2.8 1.2 5.3 2c2.4 0.8 4.2 1.4 5.2 1.8 1 0.4 2.3 1 3.7 1.9C516.4 113.4 517.7 116.1 517.7 120z"/><circle class="st1" cx="51.1" cy="13" r="7"/><circle class="st1" cx="70.9" cy="13" r="7"/><circle class="st1" cx="51.1" cy="32.9" r="7"/><circle class="st1" cx="70.9" cy="32.9" r="7"/><circle class="st1" cx="51.1" cy="52.5" r="7"/><circle class="st1" cx="70.9" cy="52.5" r="7"/><circle class="st1" cx="51.1" cy="72.4" r="7"/><circle class="st1" cx="70.9" cy="72.4" r="7"/><circle class="st1" cx="90.4" cy="52.5" r="7"/><circle class="st1" cx="110.3" cy="52.5" r="7"/><circle class="st1" cx="90.4" cy="72.4" r="7"/><circle class="st1" cx="110.3" cy="72.4" r="7"/><circle class="st1" cx="12" cy="52.5" r="7"/><circle class="st1" cx="31.9" cy="52.5" r="7"/><circle class="st1" cx="12" cy="72.4" r="7"/><circle class="st1" cx="31.9" cy="72.4" r="7"/><circle class="st1" cx="51.1" cy="92" r="7"/><circle class="st1" cx="70.9" cy="92" r="7"/><circle class="st1" cx="51.1" cy="111.9" r="7"/><circle class="st1" cx="70.9" cy="111.9" r="7"/></svg>